<?xml version="1.0" encoding="utf-8"?>
<!-- Generator: Adobe Illustrator 16.0.0, SVG Export Plug-In . SVG Version: 6.00 Build 0)  -->
<!DOCTYPE svg PUBLIC "-//W3C//DTD SVG 1.1 Basic//EN" "http://www.w3.org/Graphics/SVG/1.1/DTD/svg11-basic.dtd">
<svg version="1.1" baseProfile="basic" id="Layer_1"
	 xmlns="http://www.w3.org/2000/svg" xmlns:xlink="http://www.w3.org/1999/xlink" x="0px" y="0px" width="512px" height="512px"
	 viewBox="0 0 512 512" xml:space="preserve">
<path fill="#C94747" d="M512,256C512,114.6,397.4,0,256,0C114.6,0,0,114.6,0,256c0,141.4,114.6,256,256,256c1.5,0,3,0,4.5-0.1V312.7
	h-55v-64.1h55v-47.2c0-54.7,33.399-84.5,82.199-84.5c23.399,0,43.5,1.7,49.301,2.5v57.2H358.4c-26.5,0-31.7,12.6-31.7,31.1v40.8
	h63.5l-8.3,64.1h-55.2v189.5C433.699,471.4,512,372.9,512,256z"/>
</svg>
