<?xml version="1.0" encoding="utf-8"?>
<!-- Generator: Adobe Illustrator 16.0.0, SVG Export Plug-In . SVG Version: 6.00 Build 0)  -->
<!DOCTYPE svg PUBLIC "-//W3C//DTD SVG 1.1 Basic//EN" "http://www.w3.org/Graphics/SVG/1.1/DTD/svg11-basic.dtd">
<svg version="1.1" baseProfile="basic" id="Layer_1"
	 xmlns="http://www.w3.org/2000/svg" xmlns:xlink="http://www.w3.org/1999/xlink" x="0px" y="0px" width="510.9px"
	 height="510.998px" viewBox="0 0 510.9 510.998" xml:space="preserve">
<path fill="#C94747" d="M509.603,150.235c-1.197-27.151-5.588-45.818-11.877-61.992c-6.489-17.169-16.472-32.541-29.55-45.319
	c-12.778-12.977-28.251-23.061-45.223-29.448c-16.268-6.29-34.837-10.68-61.987-11.877C333.612,0.3,324.928,0,255.55,0
	c-69.377,0-78.063,0.3-105.314,1.498c-27.15,1.197-45.816,5.591-61.987,11.877c-17.173,6.488-32.544,16.471-45.322,29.549
	C29.947,55.703,19.868,71.175,13.477,88.146C7.187,104.418,2.796,122.983,1.6,150.134C0.3,177.488,0,186.172,0,255.55
	c0,69.379,0.3,78.063,1.498,105.314c1.196,27.15,5.592,45.817,11.881,61.992c6.489,17.169,16.567,32.541,29.546,45.318
	c12.778,12.978,28.251,23.062,45.221,29.448c16.272,6.289,34.837,10.68,61.993,11.877c27.249,1.201,35.938,1.497,105.314,1.497
	s78.063-0.296,105.313-1.497c27.152-1.197,45.818-5.588,61.989-11.877c34.342-13.278,61.492-40.43,74.771-74.768
	c6.286-16.271,10.681-34.841,11.877-61.993c1.197-27.252,1.498-35.937,1.498-105.313S510.8,177.488,509.603,150.235z
	 M463.586,358.868c-1.101,24.956-5.291,38.432-8.785,47.416c-8.587,22.262-26.255,39.93-48.518,48.517
	c-8.982,3.493-22.558,7.687-47.416,8.781c-26.952,1.201-35.036,1.497-103.217,1.497s-76.364-0.296-103.22-1.497
	c-24.956-1.096-38.433-5.288-47.417-8.781c-11.078-4.095-21.162-10.583-29.347-19.067c-8.485-8.286-14.975-18.27-19.068-29.348
	c-3.494-8.983-7.686-22.562-8.781-47.417c-1.2-26.952-1.498-35.038-1.498-103.22c0-68.181,0.296-76.366,1.498-103.217
	c1.097-24.956,5.288-38.433,8.781-47.417c4.094-11.082,10.583-21.162,19.169-29.351C84.05,67.279,94.032,60.79,105.115,56.7
	c8.984-3.494,22.563-7.686,47.417-8.786c26.953-1.197,35.04-1.497,103.218-1.497c68.281,0,76.364,0.3,103.221,1.497
	c24.956,1.1,38.432,5.292,47.416,8.786c11.078,4.09,21.162,10.579,29.347,19.064c8.485,8.286,14.974,18.269,19.068,29.351
	c3.494,8.984,7.686,22.558,8.785,47.417c1.196,26.953,1.496,35.036,1.496,103.217C465.082,323.931,464.782,331.916,463.586,358.868z
	"/>
<path fill="#C94747" d="M255.55,124.281c-72.47,0-131.27,58.795-131.27,131.269c0,72.475,58.8,131.268,131.27,131.268
	c72.475,0,131.27-58.795,131.27-131.269S328.024,124.281,255.55,124.281z M255.55,340.701c-47.015,0-85.15-38.134-85.15-85.151
	s38.137-85.151,85.15-85.151c47.02,0,85.15,38.132,85.15,85.151C340.7,302.569,302.569,340.701,255.55,340.701z"/>
<path fill="#C94747" d="M422.657,119.091c0,16.923-13.722,30.646-30.648,30.646c-16.923,0-30.646-13.722-30.646-30.646
	c0-16.927,13.724-30.645,30.646-30.645C408.937,88.446,422.657,102.164,422.657,119.091z"/>
</svg>
