<?xml version="1.0" encoding="utf-8"?>
<!-- Generator: Adobe Illustrator 16.0.0, SVG Export Plug-In . SVG Version: 6.00 Build 0)  -->
<!DOCTYPE svg PUBLIC "-//W3C//DTD SVG 1.1 Basic//EN" "http://www.w3.org/Graphics/SVG/1.1/DTD/svg11-basic.dtd">
<svg version="1.1" baseProfile="basic" id="Layer_1"
	 xmlns="http://www.w3.org/2000/svg" xmlns:xlink="http://www.w3.org/1999/xlink" x="0px" y="0px" width="612px" height="612px"
	 viewBox="0 -31.337 612 612" xml:space="preserve">
<g>
	<path fill="#C94747" d="M152.831,249.958c29.915,0.004,54.169-24.244,54.174-54.159c0.004-29.915-24.244-54.169-54.159-54.173
		s-54.169,24.243-54.174,54.158c0,0.005,0,0.01,0,0.015C98.676,225.708,122.921,249.954,152.831,249.958z"/>
	<circle fill="#C94747" cx="458.183" cy="195.8" r="54.166"/>
	<path fill="#C94747" d="M0.158,195.8c0,84.329,68.351,152.674,152.672,152.674c38.49,0.053,75.569-14.49,103.762-40.696
		l48.941,53.255l48.939-53.225c28.189,26.186,65.257,40.713,103.731,40.657c84.328,0,152.74-68.358,152.74-152.672
		c0.044-42.956-18.052-83.933-49.829-112.835l49.957-54.354H500.324c-117.448-79.921-271.817-79.921-389.268,0H0l49.957,54.354
		C18.188,111.867,0.103,152.847,0.158,195.8z M561.508,195.8c0,57.065-46.261,103.325-103.325,103.325
		S354.858,252.865,354.858,195.8c0.001-57.065,46.261-103.325,103.325-103.325S561.508,138.735,561.508,195.8L561.508,195.8z
		 M305.511,18.612c39.38-0.049,78.375,7.748,114.709,22.935c-65.211,24.952-114.656,83.29-114.656,151.272
		c0-67.99-49.46-126.335-114.68-151.279C227.192,26.364,266.159,18.57,305.511,18.612z M152.831,92.475
		c57.064,0,103.324,46.26,103.324,103.325s-46.26,103.325-103.324,103.325c-57.065,0-103.326-46.26-103.326-103.325
		S95.766,92.475,152.831,92.475L152.831,92.475L152.831,92.475z"/>
</g>
<g>
	<path fill="#C94747" d="M605.758,550.388c-3.447,0-6.241,2.794-6.241,6.241s2.794,6.242,6.241,6.242
		c3.446,0,6.242-2.795,6.242-6.242l0,0C611.995,553.184,609.203,550.392,605.758,550.388z M605.758,561.893
		c-2.91,0-5.271-2.359-5.271-5.271s2.36-5.271,5.271-5.271s5.271,2.359,5.271,5.271
		C611.028,559.532,608.669,561.893,605.758,561.893z"/>
	<path fill="#C94747" d="M607.782,555.567c0.023-0.98-0.752-1.797-1.732-1.819c-0.085-0.002-0.17,0.002-0.254,0.013h-1.995v5.677
		h0.979v-2.063h1.063l1.031,2.063h1.062l-1.137-2.259C607.433,556.903,607.827,556.259,607.782,555.567z M605.75,556.509h-0.972
		v-1.883h0.972c0.654,0,1.055,0.332,1.055,0.941C606.805,556.178,606.405,556.509,605.75,556.509z"/>
	<path fill="#C94747" d="M71.514,508.675v-10.752H55.047v63.999h16.489v-38.384c0-6.95,4.458-10.36,11.406-10.36h9.035v-15.255
		H84.23C78.2,497.923,72.952,501.07,71.514,508.675z"/>
	<path fill="#C94747" d="M107.383,472.632c-5.539-0.037-10.059,4.423-10.096,9.961c-0.037,5.539,4.422,10.061,9.961,10.098
		c5.539,0.036,10.059-4.423,10.096-9.962c0.108-5.467-4.236-9.985-9.703-10.095C107.556,472.632,107.47,472.631,107.383,472.632z"/>
	<rect x="99.162" y="497.923" fill="#C94747" width="16.443" height="63.962"/>
	<path fill="#C94747" d="M160.887,496.846c-7.009-0.035-13.833,2.247-19.411,6.491v-5.414H125.07v82.74h16.444v-24.186
		c5.567,4.238,12.375,6.525,19.373,6.506c18.259,0,33.062-14.803,33.062-33.062c0-18.26-14.803-33.062-33.062-33.062V496.846
		L160.887,496.846z M159.434,547.865c-9.921,0-17.965-8.043-17.965-17.965c0-9.923,8.043-17.967,17.965-17.967
		s17.965,8.044,17.965,17.967c0,0.002,0,0.005,0,0.007c0,9.918-8.04,17.958-17.958,17.958
		C159.439,547.865,159.437,547.865,159.434,547.865z"/>
	<path fill="#C94747" d="M479.808,524.298l-9.593-2.635c-6.311-1.643-8.771-3.584-8.771-6.92c0-3.335,3.456-5.52,8.402-5.52
		c4.714,0,8.402,3.087,8.402,7.024v0.369h15.156v-0.369c0-11.61-9.464-19.403-23.56-19.403c-13.959,0-24.094,7.793-24.094,18.53
		c0,8.35,5.542,14.645,15.193,17.257l9.193,2.492c6.979,1.936,9.569,4.081,9.569,7.921c0,4.051-3.766,6.776-9.328,6.776
		c-5.828,0-9.735-3.683-9.735-9.155v-0.369h-16.091v0.369c0,13.124,10.541,22.287,25.689,22.287
		c14.577,0,25.155-8.952,25.155-21.286C495.4,535.645,492.697,527.731,479.808,524.298z"/>
	<path fill="#C94747" d="M252.316,503.337c-5.578-4.244-12.401-6.526-19.411-6.49c-18.259,0-33.062,14.803-33.062,33.062
		c0,18.26,14.802,33.062,33.062,33.062c7.009,0.032,13.831-2.249,19.411-6.49v5.414h16.444v-64h-16.444V503.337L252.316,503.337z
		 M252.316,529.907c0,9.922-8.043,17.966-17.965,17.966c-9.921,0-17.965-8.044-17.965-17.966s8.043-17.965,17.965-17.965
		c0.002,0,0.005,0,0.008,0c9.917,0,17.958,8.039,17.958,17.958C252.316,529.902,252.316,529.905,252.316,529.907z"/>
	<path fill="#C94747" d="M328.12,503.337c-5.574-4.243-12.396-6.525-19.402-6.49c-18.259,0-33.061,14.803-33.061,33.062
		c0,18.26,14.802,33.062,33.061,33.062c7.006,0.03,13.826-2.251,19.402-6.49v5.414h16.444v-86.737H328.12V503.337L328.12,503.337z
		 M310.163,547.865c-9.921,0.004-17.969-8.036-17.973-17.958c-0.004-9.921,8.035-17.969,17.957-17.973
		c9.922-0.005,17.969,8.035,17.973,17.957c0,0.005,0,0.011,0,0.016C328.12,539.825,320.08,547.865,310.163,547.865z"/>
	<rect x="420.936" y="497.923" fill="#C94747" width="16.444" height="63.962"/>
	<path fill="#C94747" d="M429.156,472.632c-5.538-0.037-10.059,4.423-10.097,9.961c-0.037,5.539,4.423,10.061,9.962,10.098
		c5.538,0.036,10.059-4.423,10.097-9.962c0.107-5.467-4.235-9.985-9.702-10.095C429.328,472.632,429.242,472.631,429.156,472.632z"
		/>
	<path fill="#C94747" d="M533.432,496.846c-18.26,0-33.063,14.804-33.063,33.063c0,18.26,14.803,33.062,33.063,33.062
		c18.259,0,33.061-14.802,33.061-33.062l0,0C566.491,511.649,551.69,496.846,533.432,496.846z M533.432,547.865
		c-9.922,0.004-17.969-8.036-17.973-17.958c-0.006-9.922,8.034-17.969,17.957-17.974c9.922-0.004,17.969,8.036,17.973,17.958
		c0,0.005,0,0.011,0,0.016C551.389,539.825,543.349,547.865,533.432,547.865z"/>
	<polygon fill="#C94747" points="63.088,475.154 0,475.154 0,489.829 23.356,489.829 23.356,561.893 39.74,561.893 39.74,489.829 
		63.088,489.829 	"/>
	<polygon fill="#C94747" points="382.151,544.371 367.529,497.923 350.25,497.923 372.19,561.893 391.985,561.893 414.054,497.923 
		396.781,497.923 	"/>
	<path fill="#C94747" d="M611.014,513.178v-15.255h-7.702c-6.024,0-11.294,3.147-12.718,10.752v-10.752h-16.481v63.999h16.481
		v-38.384c0-6.95,4.458-10.36,11.406-10.36H611.014L611.014,513.178z"/>
</g>
</svg>
